<svg width="45" height="40" viewBox="0 0 45 40" fill="none" xmlns="http://www.w3.org/2000/svg">
<path d="M10.4164 3.6207V6.5407C11.7245 7.35107 12.565 8.87537 12.565 10.5471C12.565 11.6022 12.2297 12.598 11.6542 13.3934C11.952 13.4973 12.2649 13.6127 12.5265 13.7145L23.0411 11.9611L23.5497 16.1817L13.9463 17.9685C13.8722 19.2199 13.7358 20.4513 13.4918 21.9369H42.3855V3.6207H10.4164ZM8.26809 7.31467C6.84196 7.31467 5.51792 8.68043 5.51792 10.5472C5.51792 12.414 6.84196 13.7796 8.26809 13.7796C9.69423 13.7796 11.0183 12.414 11.0183 10.5472C11.0183 8.68043 9.69423 7.31467 8.26809 7.31467ZM21.6826 13.5966L12.3505 15.1527C11.1267 14.7216 11.9246 14.9192 10.5055 14.4973C9.86301 14.9182 9.10212 15.1647 8.26809 15.1647C7.52903 15.1647 6.84755 14.9705 6.25475 14.6337C5.51655 14.9079 4.73752 15.2562 4.04306 15.6075C2.92656 16.1722 2.00445 16.6242 1.65073 16.8413V26.8622H3.36983V18.3198H4.91636V38.5598H7.49483V25.5538H9.04136V38.5598H11.2761V25.3354L11.2893 25.272C12.1069 21.3748 12.3711 19.3167 12.4461 16.8331L21.8614 15.0811L21.6826 13.5966ZM13.2476 23.3222C13.1658 23.7595 13.0765 24.218 12.9772 24.7071H41.0962V23.3222H13.2476ZM17.8931 27.0158C16.467 27.0158 15.1429 28.3816 15.1429 30.2484C15.1429 31.6488 15.888 32.7672 16.8625 33.2386C17.1718 33.1107 17.5055 33.0303 17.8663 33.0192C18.2644 33.0068 18.638 33.0782 18.9879 33.2054C19.9305 32.7166 20.6433 31.6178 20.6433 30.2484C20.6433 28.3816 19.3192 27.0158 17.8931 27.0158ZM27.5181 27.0158C26.092 27.0158 24.7679 28.3816 24.7679 30.2484C24.7679 31.6488 25.513 32.7672 26.4875 33.2386C26.7968 33.1107 27.1305 33.0303 27.4913 33.0192C27.8894 33.0068 28.263 33.0782 28.6129 33.2054C29.5555 32.7166 30.2683 31.6178 30.2683 30.2484C30.2683 28.3816 28.9442 27.0158 27.5181 27.0158ZM37.1431 27.0158C35.717 27.0158 34.3929 28.3816 34.3929 30.2484C34.3929 31.6488 35.138 32.7672 36.1125 33.2386C36.4218 33.1107 36.7555 33.0303 37.1163 33.0192C37.5144 33.0068 37.888 33.0782 38.2379 33.2054C39.1805 32.7166 39.8933 31.6178 39.8933 30.2484C39.8933 28.3816 38.5692 27.0158 37.1431 27.0158ZM17.9199 34.4035C17.5896 34.4137 17.1545 34.629 16.691 35.0795C16.2275 35.5301 15.7718 36.1762 15.3912 36.8311C15.028 37.456 14.7373 38.0747 14.5267 38.5598H21.8605C21.5992 38.0645 21.2471 37.4401 20.8178 36.812C20.3625 36.1457 19.8286 35.4931 19.2995 35.0453C18.7703 34.5975 18.2854 34.3922 17.9199 34.4035ZM27.5449 34.4035C27.2146 34.4137 26.7795 34.629 26.316 35.0795C25.8525 35.5301 25.3968 36.1762 25.0162 36.8311C24.653 37.456 24.3623 38.0747 24.1517 38.5598H31.4855C31.2242 38.0645 30.8721 37.4401 30.4428 36.812C29.9875 36.1457 29.4536 35.4931 28.9245 35.0453C28.3953 34.5975 27.9103 34.3922 27.5449 34.4035ZM37.1699 34.4035C36.8396 34.4137 36.4045 34.629 35.941 35.0795C35.4775 35.5301 35.0218 36.1762 34.6412 36.8311C34.278 37.456 33.9873 38.0747 33.7767 38.5598H41.1105C40.8492 38.0645 40.4971 37.4401 40.0678 36.812C39.6125 36.1457 39.0786 35.4931 38.5495 35.0453C38.0203 34.5975 37.5353 34.3922 37.1699 34.4035Z" fill="#FFC000"/>
</svg>
