<svg width="45" height="45" viewBox="0 0 45 45" fill="none" xmlns="http://www.w3.org/2000/svg">
<path d="M13.2947 20.3334C12.2113 20.3334 11.1385 20.12 10.1376 19.7054C9.13667 19.2908 8.2272 18.6831 7.46112 17.917C6.69503 17.151 6.08734 16.2415 5.67274 15.2405C5.25814 14.2396 5.04475 13.1668 5.04475 12.0834C5.04475 11 5.25814 9.9272 5.67274 8.92627C6.08734 7.92533 6.69503 7.01586 7.46112 6.24977C8.2272 5.48369 9.13667 4.876 10.1376 4.4614C11.1385 4.0468 12.2113 3.8334 13.2947 3.8334C15.4828 3.8334 17.5812 4.7026 19.1284 6.24977C20.6756 7.79695 21.5448 9.89537 21.5448 12.0834C21.5448 14.2714 20.6756 16.3699 19.1284 17.917C17.5812 19.4642 15.4828 20.3334 13.2947 20.3334ZM32.5448 27.6667C30.5998 27.6667 28.7346 26.8941 27.3593 25.5189C25.984 24.1436 25.2114 22.2783 25.2114 20.3334C25.2114 18.3885 25.984 16.5232 27.3593 15.148C28.7346 13.7727 30.5998 13.0001 32.5448 13.0001C34.4897 13.0001 36.3549 13.7727 37.7302 15.148C39.1055 16.5232 39.8781 18.3885 39.8781 20.3334C39.8781 22.2783 39.1055 24.1436 37.7302 25.5189C36.3549 26.8941 34.4897 27.6667 32.5448 27.6667ZM32.5448 29.5001C34.7328 29.5001 36.8312 30.3693 38.3784 31.9164C39.9256 33.4636 40.7948 35.562 40.7948 37.7501V38.6667H24.2948V37.7501C24.2948 35.562 25.1639 33.4636 26.7111 31.9164C28.2583 30.3693 30.3567 29.5001 32.5448 29.5001ZM13.2947 22.1667C14.4985 22.1667 15.6905 22.4038 16.8027 22.8645C17.9148 23.3252 18.9254 24.0004 19.7766 24.8516C20.6278 25.7028 21.303 26.7133 21.7636 27.8255C22.2243 28.9376 22.4614 30.1296 22.4614 31.3334V38.6667H4.12808V31.3334C4.12808 28.9023 5.09385 26.5707 6.81294 24.8516C8.53202 23.1325 10.8636 22.1667 13.2947 22.1667Z" fill="#3FB65F"/>
</svg>
