<svg width="40" height="41" viewBox="0 0 40 41" fill="none" xmlns="http://www.w3.org/2000/svg">
<g clip-path="url(#clip0_2005_371)">
<path d="M20 21.6289C19.6464 21.6289 19.3072 21.7694 19.0572 22.0194C18.8071 22.2694 18.6667 22.6086 18.6667 22.9622C18.6667 23.3158 18.8071 23.655 19.0572 23.905C19.3072 24.1551 19.6464 24.2955 20 24.2955C20.3536 24.2955 20.6928 24.1551 20.9428 23.905C21.1928 23.655 21.3333 23.3158 21.3333 22.9622C21.3333 22.6086 21.1928 22.2694 20.9428 22.0194C20.6928 21.7694 20.3536 21.6289 20 21.6289Z" fill="#F29993"/>
<path fill-rule="evenodd" clip-rule="evenodd" d="M32 16.8049L21.3333 11.4715V8.29553H29.3333V0.295532H18.6667V11.4715L8 16.8049V21.6289H2.66667V37.6289H0V40.2955H16V29.6289H24V40.2955H40V37.6289H37.3333V21.6289H32V16.8049ZM34.6667 37.6289V24.2955H32V37.6289H34.6667ZM8 37.6289H5.33333V24.2955H8V37.6289ZM16 22.9622C16 21.9013 16.4214 20.8839 17.1716 20.1338C17.9217 19.3836 18.9391 18.9622 20 18.9622C21.0609 18.9622 22.0783 19.3836 22.8284 20.1338C23.5786 20.8839 24 21.9013 24 22.9622C24 24.0231 23.5786 25.0405 22.8284 25.7906C22.0783 26.5408 21.0609 26.9622 20 26.9622C18.9391 26.9622 17.9217 26.5408 17.1716 25.7906C16.4214 25.0405 16 24.0231 16 22.9622Z" fill="#F29993"/>
<path d="M21.3333 40.2955V32.2955H18.6667V40.2955H21.3333Z" fill="#F29993"/>
</g>
<defs>
<clipPath id="clip0_2005_371">
<rect width="40" height="40" fill="white" transform="translate(0 0.295532)"/>
</clipPath>
</defs>
</svg>
